<?xml version="1.0" encoding="UTF-8" standalone="no"?><svg xmlns="http://www.w3.org/2000/svg" xmlns:xlink="http://www.w3.org/1999/xlink" contentScriptType="application/ecmascript" contentStyleType="text/css" height="586px" preserveAspectRatio="none" style="width:192px;height:586px;" version="1.1" viewBox="0 0 192 586" width="192px" zoomAndPan="magnify"><defs><filter height="300%" id="f1xrz5e82vieiq" width="300%" x="-1" y="-1"><feGaussianBlur result="blurOut" stdDeviation="2.0"/><feColorMatrix in="blurOut" result="blurOut2" type="matrix" values="0 0 0 0 0 0 0 0 0 0 0 0 0 0 0 0 0 0 .4 0"/><feOffset dx="4.0" dy="4.0" in="blurOut2" result="blurOut3"/><feBlend in="SourceGraphic" in2="blurOut3" mode="normal"/></filter></defs><g><text fill="#000000" font-family="sans-serif" font-size="18" lengthAdjust="spacingAndGlyphs" textLength="149" x="20.5" y="31.6826">aggregate function</text><text fill="#000000" font-family="sans-serif" font-size="18" lengthAdjust="spacingAndGlyphs" textLength="0" x="97.5" y="57.3203"/><ellipse cx="98" cy="71.2754" fill="#000000" filter="url(#f1xrz5e82vieiq)" rx="10" ry="10" style="stroke: none; stroke-width: 1.0;"/><rect fill="#FF4500" filter="url(#f1xrz5e82vieiq)" height="37.0918" rx="12.5" ry="12.5" style="stroke: #A80036; stroke-width: 1.5;" width="83" x="56.5" y="101.2754"/><text fill="#000000" font-family="sans-serif" font-size="12" lengthAdjust="spacingAndGlyphs" textLength="63" x="66.5" y="125.7305">name_init()</text><rect fill="#FFA500" filter="url(#f1xrz5e82vieiq)" height="37.0918" rx="12.5" ry="12.5" style="stroke: #A80036; stroke-width: 1.5;" width="94" x="51" y="217.1177"/><text fill="#000000" font-family="sans-serif" font-size="12" lengthAdjust="spacingAndGlyphs" textLength="74" x="61" y="241.5728">name_clear()</text><rect fill="#FFA500" filter="url(#f1xrz5e82vieiq)" height="37.0918" rx="12.5" ry="12.5" style="stroke: #A80036; stroke-width: 1.5;" width="88" x="54" y="337.877"/><text fill="#000000" font-family="sans-serif" font-size="12" lengthAdjust="spacingAndGlyphs" textLength="68" x="64" y="362.332">name_add()</text><polygon fill="#FEFECE" filter="url(#f1xrz5e82vieiq)" points="68.5,274.2095,127.5,274.2095,139.5,286.2095,127.5,298.2095,68.5,298.2095,56.5,286.2095,68.5,274.2095" style="stroke: #A80036; stroke-width: 1.5;"/><text fill="#000000" font-family="sans-serif" font-size="11" lengthAdjust="spacingAndGlyphs" textLength="18" x="102" y="311.46">yes</text><text fill="#000000" font-family="sans-serif" font-size="11" lengthAdjust="spacingAndGlyphs" textLength="59" x="68.5" y="291.6262">more rows?</text><text fill="#000000" font-family="sans-serif" font-size="11" lengthAdjust="spacingAndGlyphs" textLength="12" x="44.5" y="283.7925">no</text><rect fill="#FF4500" filter="url(#f1xrz5e82vieiq)" height="37.0918" rx="12.5" ry="12.5" style="stroke: #A80036; stroke-width: 1.5;" width="60" x="68" y="416.9688"/><text fill="#000000" font-family="sans-serif" font-size="12" lengthAdjust="spacingAndGlyphs" textLength="40" x="78" y="441.4238">name()</text><polygon fill="#FEFECE" filter="url(#f1xrz5e82vieiq)" points="64.5,158.3672,131.5,158.3672,143.5,170.3672,131.5,182.3672,64.5,182.3672,52.5,170.3672,64.5,158.3672" style="stroke: #A80036; stroke-width: 1.5;"/><text fill="#000000" font-family="sans-serif" font-size="11" lengthAdjust="spacingAndGlyphs" textLength="18" x="102" y="195.6177">yes</text><text fill="#000000" font-family="sans-serif" font-size="11" lengthAdjust="spacingAndGlyphs" textLength="67" x="64.5" y="175.7839">more groups?</text><text fill="#000000" font-family="sans-serif" font-size="11" lengthAdjust="spacingAndGlyphs" textLength="12" x="40.5" y="167.9502">no</text><rect fill="#FF4500" filter="url(#f1xrz5e82vieiq)" height="37.0918" rx="12.5" ry="12.5" style="stroke: #A80036; stroke-width: 1.5;" width="97" x="49.5" y="496.0605"/><text fill="#000000" font-family="sans-serif" font-size="12" lengthAdjust="spacingAndGlyphs" textLength="77" x="59.5" y="520.5156">name_deinit()</text><ellipse cx="98" cy="564.1523" fill="#FFFFFF" filter="url(#f1xrz5e82vieiq)" rx="11" ry="11" style="stroke: #000000; stroke-width: 1.0;"/><ellipse cx="98" cy="564.1523" fill="#000000" rx="6" ry="6" style="stroke: #7F7F7F; stroke-width: 1.0;"/><line style="stroke: #A80036; stroke-width: 1.5;" x1="98" x2="98" y1="81.2754" y2="101.2754"/><polygon fill="#A80036" points="94,91.2754,98,101.2754,102,91.2754,98,95.2754" style="stroke: #A80036; stroke-width: 1.0;"/><line style="stroke: #008000; stroke-width: 1.5;" x1="98" x2="98" y1="298.2095" y2="337.877"/><polygon fill="#008000" points="94,327.877,98,337.877,102,327.877,98,331.877" style="stroke: #008000; stroke-width: 1.0;"/><line style="stroke: #0000FF; stroke-width: 1.5;" x1="98" x2="98" y1="374.9688" y2="384.9688"/><line style="stroke: #0000FF; stroke-width: 1.5;" x1="98" x2="154" y1="384.9688" y2="384.9688"/><polygon fill="#0000FF" points="150,346.5891,154,336.5891,158,346.5891,154,342.5891" style="stroke: #0000FF; stroke-width: 1.5;"/><line style="stroke: #0000FF; stroke-width: 1.5;" x1="154" x2="154" y1="286.2095" y2="384.9688"/><line style="stroke: #0000FF; stroke-width: 1.5;" x1="154" x2="139.5" y1="286.2095" y2="286.2095"/><polygon fill="#0000FF" points="149.5,282.2095,139.5,286.2095,149.5,290.2095,145.5,286.2095" style="stroke: #0000FF; stroke-width: 1.0;"/><line style="stroke: #0000FF; stroke-width: 1.5;" x1="56.5" x2="42" y1="286.2095" y2="286.2095"/><polygon fill="#0000FF" points="38,332.5891,42,342.5891,46,332.5891,42,336.5891" style="stroke: #0000FF; stroke-width: 1.5;"/><line style="stroke: #0000FF; stroke-width: 1.5;" x1="42" x2="42" y1="286.2095" y2="396.9688"/><line style="stroke: #0000FF; stroke-width: 1.5;" x1="42" x2="98" y1="396.9688" y2="396.9688"/><line style="stroke: #0000FF; stroke-width: 1.5;" x1="98" x2="98" y1="396.9688" y2="416.9688"/><polygon fill="#0000FF" points="94,406.9688,98,416.9688,102,406.9688,98,410.9688" style="stroke: #0000FF; stroke-width: 1.0;"/><line style="stroke: #0000FF; stroke-width: 1.5;" x1="98" x2="98" y1="254.2095" y2="274.2095"/><polygon fill="#0000FF" points="94,264.2095,98,274.2095,102,264.2095,98,268.2095" style="stroke: #0000FF; stroke-width: 1.0;"/><line style="stroke: #0000FF; stroke-width: 1.5;" x1="98" x2="98" y1="182.3672" y2="217.1177"/><polygon fill="#0000FF" points="94,207.1177,98,217.1177,102,207.1177,98,211.1177" style="stroke: #0000FF; stroke-width: 1.0;"/><line style="stroke: #A80036; stroke-width: 1.5;" x1="98" x2="98" y1="454.0605" y2="464.0605"/><line style="stroke: #A80036; stroke-width: 1.5;" x1="98" x2="166" y1="464.0605" y2="464.0605"/><polygon fill="#A80036" points="162,326.7554,166,316.7554,170,326.7554,166,322.7554" style="stroke: #A80036; stroke-width: 1.5;"/><line style="stroke: #A80036; stroke-width: 1.5;" x1="166" x2="166" y1="170.3672" y2="464.0605"/><line style="stroke: #A80036; stroke-width: 1.5;" x1="166" x2="143.5" y1="170.3672" y2="170.3672"/><polygon fill="#A80036" points="153.5,166.3672,143.5,170.3672,153.5,174.3672,149.5,170.3672" style="stroke: #A80036; stroke-width: 1.0;"/><line style="stroke: #A80036; stroke-width: 1.5;" x1="52.5" x2="24" y1="170.3672" y2="170.3672"/><polygon fill="#A80036" points="20,312.7554,24,322.7554,28,312.7554,24,316.7554" style="stroke: #A80036; stroke-width: 1.5;"/><line style="stroke: #A80036; stroke-width: 1.5;" x1="24" x2="24" y1="170.3672" y2="476.0605"/><line style="stroke: #A80036; stroke-width: 1.5;" x1="24" x2="98" y1="476.0605" y2="476.0605"/><line style="stroke: #A80036; stroke-width: 1.5;" x1="98" x2="98" y1="476.0605" y2="496.0605"/><polygon fill="#A80036" points="94,486.0605,98,496.0605,102,486.0605,98,490.0605" style="stroke: #A80036; stroke-width: 1.0;"/><line style="stroke: #A80036; stroke-width: 1.5;" x1="98" x2="98" y1="138.3672" y2="158.3672"/><polygon fill="#A80036" points="94,148.3672,98,158.3672,102,148.3672,98,152.3672" style="stroke: #A80036; stroke-width: 1.0;"/><line style="stroke: #A80036; stroke-width: 1.5;" x1="98" x2="98" y1="533.1523" y2="553.1523"/><polygon fill="#A80036" points="94,543.1523,98,553.1523,102,543.1523,98,547.1523" style="stroke: #A80036; stroke-width: 1.0;"/><!--
@startuml MysqlUDF_Aggregate_Function_Process_Flow
title aggregate function\n

start
#OrangeRed:name_init();
while (more groups?) is (yes)
  -[#blue]->
  #Orange:name_clear();
  -[#blue]->
  while (more rows?) is (yes)
    -[#green]->
    #Orange:name_add();
    -[#blue]->
  endwhile (no)
  -[#blue]->
  #OrangeRed:name();
endwhile (no)
#OrangeRed:name_deinit();
stop

@enduml

PlantUML version 1.2019.09(Tue Aug 27 00:19:51 CST 2019)
(GPL source distribution)
Java Runtime: Java(TM) SE Runtime Environment
JVM: Java HotSpot(TM) Client VM
Java Version: 1.8.0_251-b08
Operating System: Windows 10
OS Version: 10.0
Default Encoding: MS950
Language: zh
Country: TW
--></g></svg>