<?xml version="1.0" encoding="UTF-8" standalone="no"?><svg xmlns="http://www.w3.org/2000/svg" xmlns:xlink="http://www.w3.org/1999/xlink" contentScriptType="application/ecmascript" contentStyleType="text/css" height="386px" preserveAspectRatio="none" style="width:157px;height:386px;" version="1.1" viewBox="0 0 157 386" width="157px" zoomAndPan="magnify"><defs><filter height="300%" id="f1w8mgvpi0ifpc" width="300%" x="-1" y="-1"><feGaussianBlur result="blurOut" stdDeviation="2.0"/><feColorMatrix in="blurOut" result="blurOut2" type="matrix" values="0 0 0 0 0 0 0 0 0 0 0 0 0 0 0 0 0 0 .4 0"/><feOffset dx="4.0" dy="4.0" in="blurOut2" result="blurOut3"/><feBlend in="SourceGraphic" in2="blurOut3" mode="normal"/></filter></defs><g><text fill="#000000" font-family="sans-serif" font-size="18" lengthAdjust="spacingAndGlyphs" textLength="122" x="16.5" y="31.6826">normal function</text><text fill="#000000" font-family="sans-serif" font-size="18" lengthAdjust="spacingAndGlyphs" textLength="0" x="80" y="57.3203"/><ellipse cx="77.5" cy="71.2754" fill="#000000" filter="url(#f1w8mgvpi0ifpc)" rx="10" ry="10" style="stroke: none; stroke-width: 1.0;"/><rect fill="#FF4500" filter="url(#f1w8mgvpi0ifpc)" height="37.0918" rx="12.5" ry="12.5" style="stroke: #A80036; stroke-width: 1.5;" width="83" x="36" y="101.2754"/><text fill="#000000" font-family="sans-serif" font-size="12" lengthAdjust="spacingAndGlyphs" textLength="63" x="46" y="125.7305">name_init()</text><rect fill="#FF4500" filter="url(#f1w8mgvpi0ifpc)" height="37.0918" rx="12.5" ry="12.5" style="stroke: #A80036; stroke-width: 1.5;" width="60" x="47.5" y="217.1177"/><text fill="#000000" font-family="sans-serif" font-size="12" lengthAdjust="spacingAndGlyphs" textLength="40" x="57.5" y="241.5728">name()</text><polygon fill="#FEFECE" filter="url(#f1w8mgvpi0ifpc)" points="48,158.3672,107,158.3672,119,170.3672,107,182.3672,48,182.3672,36,170.3672,48,158.3672" style="stroke: #A80036; stroke-width: 1.5;"/><text fill="#000000" font-family="sans-serif" font-size="11" lengthAdjust="spacingAndGlyphs" textLength="18" x="81.5" y="195.6177">yes</text><text fill="#000000" font-family="sans-serif" font-size="11" lengthAdjust="spacingAndGlyphs" textLength="59" x="48" y="175.7839">more rows?</text><text fill="#000000" font-family="sans-serif" font-size="11" lengthAdjust="spacingAndGlyphs" textLength="12" x="24" y="167.9502">no</text><rect fill="#FF4500" filter="url(#f1w8mgvpi0ifpc)" height="37.0918" rx="12.5" ry="12.5" style="stroke: #A80036; stroke-width: 1.5;" width="97" x="29" y="296.2095"/><text fill="#000000" font-family="sans-serif" font-size="12" lengthAdjust="spacingAndGlyphs" textLength="77" x="39" y="320.6646">name_deinit()</text><ellipse cx="77.5" cy="364.3013" fill="#FFFFFF" filter="url(#f1w8mgvpi0ifpc)" rx="11" ry="11" style="stroke: #000000; stroke-width: 1.0;"/><ellipse cx="77.5" cy="364.3013" fill="#000000" rx="6" ry="6" style="stroke: #7F7F7F; stroke-width: 1.0;"/><line style="stroke: #A80036; stroke-width: 1.5;" x1="77.5" x2="77.5" y1="81.2754" y2="101.2754"/><polygon fill="#A80036" points="73.5,91.2754,77.5,101.2754,81.5,91.2754,77.5,95.2754" style="stroke: #A80036; stroke-width: 1.0;"/><line style="stroke: #008000; stroke-width: 1.5;" x1="77.5" x2="77.5" y1="182.3672" y2="217.1177"/><polygon fill="#008000" points="73.5,207.1177,77.5,217.1177,81.5,207.1177,77.5,211.1177" style="stroke: #008000; stroke-width: 1.0;"/><line style="stroke: #A80036; stroke-width: 1.5;" x1="77.5" x2="77.5" y1="254.2095" y2="264.2095"/><line style="stroke: #A80036; stroke-width: 1.5;" x1="77.5" x2="131" y1="264.2095" y2="264.2095"/><polygon fill="#A80036" points="127,225.8298,131,215.8298,135,225.8298,131,221.8298" style="stroke: #A80036; stroke-width: 1.5;"/><line style="stroke: #A80036; stroke-width: 1.5;" x1="131" x2="131" y1="170.3672" y2="264.2095"/><line style="stroke: #A80036; stroke-width: 1.5;" x1="131" x2="119" y1="170.3672" y2="170.3672"/><polygon fill="#A80036" points="129,166.3672,119,170.3672,129,174.3672,125,170.3672" style="stroke: #A80036; stroke-width: 1.0;"/><line style="stroke: #A80036; stroke-width: 1.5;" x1="36" x2="24" y1="170.3672" y2="170.3672"/><polygon fill="#A80036" points="20,211.8298,24,221.8298,28,211.8298,24,215.8298" style="stroke: #A80036; stroke-width: 1.5;"/><line style="stroke: #A80036; stroke-width: 1.5;" x1="24" x2="24" y1="170.3672" y2="276.2095"/><line style="stroke: #A80036; stroke-width: 1.5;" x1="24" x2="77.5" y1="276.2095" y2="276.2095"/><line style="stroke: #A80036; stroke-width: 1.5;" x1="77.5" x2="77.5" y1="276.2095" y2="296.2095"/><polygon fill="#A80036" points="73.5,286.2095,77.5,296.2095,81.5,286.2095,77.5,290.2095" style="stroke: #A80036; stroke-width: 1.0;"/><line style="stroke: #A80036; stroke-width: 1.5;" x1="77.5" x2="77.5" y1="138.3672" y2="158.3672"/><polygon fill="#A80036" points="73.5,148.3672,77.5,158.3672,81.5,148.3672,77.5,152.3672" style="stroke: #A80036; stroke-width: 1.0;"/><line style="stroke: #A80036; stroke-width: 1.5;" x1="77.5" x2="77.5" y1="333.3013" y2="353.3013"/><polygon fill="#A80036" points="73.5,343.3013,77.5,353.3013,81.5,343.3013,77.5,347.3013" style="stroke: #A80036; stroke-width: 1.0;"/><!--
@startuml MysqlUDF_Normal_Function_Process_Flow
title normal function\n

start
#OrangeRed:name_init();
while (more rows?) is (yes)
  -[#green]->
  #OrangeRed:name();
endwhile (no)
#OrangeRed:name_deinit();
stop

@enduml

PlantUML version 1.2019.09(Tue Aug 27 00:19:51 CST 2019)
(GPL source distribution)
Java Runtime: Java(TM) SE Runtime Environment
JVM: Java HotSpot(TM) Client VM
Java Version: 1.8.0_251-b08
Operating System: Windows 10
OS Version: 10.0
Default Encoding: MS950
Language: zh
Country: TW
--></g></svg>